<svg width="25" height="29" viewBox="0 0 25 29" fill="none" xmlns="http://www.w3.org/2000/svg">
<path d="M17.7375 7.00195C17.0051 7.00195 16.3215 7.11426 15.6868 7.33887C15.0618 7.56348 14.4905 7.78809 13.9729 8.0127C13.4553 8.22754 13.0061 8.33496 12.6252 8.33496C12.2249 8.33496 11.7805 8.23242 11.2922 8.02734C10.804 7.8125 10.2766 7.60254 9.71021 7.39746C9.15356 7.19238 8.55786 7.08984 7.9231 7.08984C6.72192 7.08984 5.5647 7.41699 4.45142 8.07129C3.33813 8.72559 2.42505 9.69238 1.71216 10.9717C0.999268 12.251 0.642822 13.8281 0.642822 15.7031C0.642822 16.875 0.779541 18.0469 1.05298 19.2188C1.32642 20.3906 1.69263 21.499 2.15161 22.5439C2.6106 23.5889 3.11841 24.5117 3.67505 25.3125C4.39771 26.3184 5.10083 27.1826 5.78442 27.9053C6.47778 28.6279 7.27856 28.9893 8.18677 28.9893C8.78247 28.9893 9.30005 28.8916 9.7395 28.6963C10.179 28.501 10.6428 28.3008 11.1311 28.0957C11.6292 27.9004 12.2493 27.8027 12.9915 27.8027C13.5579 27.8027 14.0315 27.8613 14.4124 27.9785C14.7932 28.0957 15.1399 28.2275 15.4524 28.374C15.7747 28.5303 16.1116 28.667 16.4631 28.7842C16.8147 28.9014 17.2395 28.96 17.7375 28.96C18.3918 28.96 18.9778 28.7842 19.4954 28.4326C20.0227 28.0908 20.5061 27.6465 20.9456 27.0996C21.3948 26.5527 21.8293 25.9814 22.2493 25.3857C22.7083 24.7119 23.0793 24.0674 23.3625 23.4521C23.6555 22.8271 23.8704 22.3193 24.0071 21.9287C24.1438 21.5283 24.217 21.3086 24.2268 21.2695C24.1975 21.2598 23.9827 21.1523 23.5823 20.9473C23.1917 20.7324 22.7424 20.3955 22.2346 19.9365C21.7366 19.4775 21.2971 18.877 20.9163 18.1348C20.5452 17.3926 20.3596 16.4844 20.3596 15.4102C20.3596 14.4727 20.5061 13.667 20.7991 12.9932C21.1018 12.3096 21.4534 11.748 21.8538 11.3086C22.2542 10.8594 22.6106 10.5176 22.9231 10.2832C23.2454 10.0488 23.4309 9.91699 23.4797 9.8877C22.9915 9.18457 22.4592 8.6377 21.8831 8.24707C21.3069 7.85645 20.7405 7.57324 20.1838 7.39746C19.6272 7.22168 19.1292 7.11426 18.6897 7.0752C18.26 7.02637 17.9426 7.00195 17.7375 7.00195ZM16.7122 4.62891C17.1614 4.0918 17.5276 3.47168 17.8108 2.76855C18.094 2.05566 18.2356 1.32324 18.2356 0.571289C18.2356 0.356445 18.2209 0.166016 18.1917 0C17.4592 0.0292969 16.6926 0.249023 15.8918 0.65918C15.1008 1.06934 14.4465 1.58203 13.929 2.19727C13.509 2.66602 13.1379 3.25195 12.8157 3.95508C12.4934 4.6582 12.3323 5.38086 12.3323 6.12305C12.3323 6.24023 12.3372 6.34766 12.3469 6.44531C12.3665 6.54297 12.3811 6.61133 12.3909 6.65039C12.5178 6.67969 12.6497 6.69434 12.7864 6.69434C13.4407 6.69434 14.134 6.49902 14.8665 6.1084C15.6086 5.71777 16.2239 5.22461 16.7122 4.62891Z" fill="black"/>
</svg>