<svg width="24" height="25" viewBox="0 0 24 25" fill="none" xmlns="http://www.w3.org/2000/svg">
<g id="Group 2608565">
<rect id="Rectangle 5585" y="0.9375" width="24" height="24" rx="3" fill="#EB0130"/>
<path id="Vector" d="M15.9725 16.0635C14.3515 16.0635 13.354 17.2708 11.2878 17.2708C9.06124 17.2708 7.22656 15.4598 7.22656 13.2227C7.22656 10.9856 9.06124 9.15685 11.2878 9.15685C13.5144 9.15685 15.349 11.0034 15.349 13.2227C15.349 13.9151 15.2065 14.6786 14.9215 15.2112C15.7943 15.0159 16.4178 14.9804 17.2728 15.2112C17.4687 14.5898 17.5756 13.9151 17.5756 13.2227C17.5756 9.76052 14.7968 6.9375 11.2878 6.9375C7.77874 6.9375 5 9.76052 5 13.2227C5 16.6849 7.81437 19.4902 11.2878 19.4902C13.7637 19.4902 14.5653 18.3183 15.8656 18.3183C16.5247 18.3183 16.8453 18.851 16.97 19.5612L19.0896 19.0463C18.8581 17.1998 17.6825 16.0635 15.9725 16.0635Z" fill="white"/>
</g>
</svg>
